<svg width="26" height="18" viewBox="0 0 26 18" fill="none" xmlns="http://www.w3.org/2000/svg">
<path d="M23.8664 2.36178L24.2355 1.54992L25.0473 1.18089L24.2355 0.811861L23.8664 0L23.4974 0.811861L22.6855 1.18089L23.4974 1.54992L23.8664 2.36178Z" fill="#272727"/>
<path d="M23.8664 4.13306L23.4974 4.94492L22.6855 5.31395L23.4974 5.68297L23.8664 6.49483L24.2355 5.68297L25.0473 5.31395L24.2355 4.94492L23.8664 4.13306Z" fill="#272727"/>
<path d="M21.6526 2.50946L20.9145 0.885742L20.1764 2.50946L18.5527 3.24752L20.1764 3.98557L20.9145 5.6093L21.6526 3.98557L23.2763 3.24752L21.6526 2.50946Z" fill="#272727"/>
<path d="M4.6458 1.85571C4.66706 1.85571 4.68828 1.85586 4.70947 1.85614V1.85571H15.7368C16.4806 1.85571 17.0836 2.45777 17.0836 3.20045V3.41866C17.0836 4.16185 16.4798 4.76413 15.7355 4.76339L4.71028 4.75242V4.75253H4.71025C3.74888 4.75253 2.96954 5.5307 2.96954 6.49062C2.96954 7.44309 3.73682 8.21662 4.68789 8.22857V8.22262L16.6438 8.22262V8.22907C16.6631 8.22884 16.6825 8.22872 16.7019 8.22872C19.2655 8.22872 21.3438 10.3038 21.3438 12.8636C21.3438 15.4234 19.2655 17.4985 16.7019 17.4985C16.6825 17.4985 16.6631 17.4984 16.6438 17.4982V17.4985L5.34752 17.4985C4.60373 17.4985 4.00076 16.8965 4.00076 16.1538V15.9343C4.00076 15.1916 4.60373 14.5895 5.34752 14.5895L16.6438 14.5895V14.6017C17.6022 14.5982 18.3781 13.8214 18.3781 12.8636C18.3781 11.9059 17.6022 11.129 16.6438 11.1256V11.1316L4.68789 11.1316V11.1253C4.67387 11.1255 4.65985 11.1255 4.6458 11.1255C2.08215 11.1255 0.00390625 9.05042 0.00390625 6.49062C0.00390625 3.93083 2.08215 1.85571 4.6458 1.85571Z" fill="#272727"/>
<ellipse cx="1.44217" cy="16.0278" rx="1.43827" ry="1.47069" fill="#272727"/>
</svg>
